# xmcd
#
# Track frame offsets:
#	150
#	19330
#	36264
#	62271
#	83646
#	101505
#	116477
#	134883
#	157188
#
# Disc length: 2374 seconds
# Revision: 0
# Processed by: cddbd v1.5.2PL0 Copyright (c) Steve Scherf et al.
# Submitted via: dBpowerAMP V12.0
#
DISCID=75094409
DTITLE=Debbie Bond and the TruDats - That Thing Called Love
DYEAR=2013
DGENRE=Blues
TTITLE0=You're the Kind of Trouble
TTITLE1=Steady Rolling Man
TTITLE2=Feed My Soul
TTITLE3=I Like It Like That
TTITLE4=Still Missing You
TTITLE5=Tarragona Blues
TTITLE6=Falling
TTITLE7=That Thing Called Love
TTITLE8=Tarragone Blues - extended mix
EXTD=
EXTT0=
EXTT1=
EXTT2=
EXTT3=
EXTT4=
EXTT5=
EXTT6=
EXTT7=
EXTT8=
PLAYORDER=
